<mxfile host="app.diagrams.net" modified="2022-06-29T14:04:32.941Z" agent="5.0 (Macintosh; Intel Mac OS X 10_15_7) AppleWebKit/537.36 (KHTML, like Gecko) Chrome/102.0.0.0 Safari/537.36" etag="G60BGSd7NcgCs8E5bz3e" version="20.0.3" type="github" pages="2">
  <diagram id="CH8DpX-lFAURxRskI41Q" name="内网直播">
    <mxGraphModel dx="916" dy="461" grid="1" gridSize="10" guides="1" tooltips="1" connect="1" arrows="1" fold="1" page="1" pageScale="1" pageWidth="827" pageHeight="1169" math="0" shadow="0">
      <root>
        <mxCell id="0" />
        <mxCell id="1" parent="0" />
        <mxCell id="xdmrDdHuAQ9QDbXB6d65-68" value="" style="rounded=0;whiteSpace=wrap;html=1;dashed=1;fontSize=11;strokeColor=#C4C4C4;" parent="1" vertex="1">
          <mxGeometry x="180" y="620" width="990" height="510" as="geometry" />
        </mxCell>
        <mxCell id="Kd89IbtlPx_BLbznbSWo-29" value="" style="rounded=0;whiteSpace=wrap;html=1;dashed=1;shadow=0;strokeWidth=1;perimeterSpacing=0;strokeColor=#FF0000;" parent="1" vertex="1">
          <mxGeometry x="640" y="710" width="410" height="260" as="geometry" />
        </mxCell>
        <mxCell id="Kd89IbtlPx_BLbznbSWo-9" value="" style="rounded=0;whiteSpace=wrap;html=1;dashed=1;shadow=0;strokeWidth=1;perimeterSpacing=0;fontColor=#3333FF;strokeColor=#3333ff;" parent="1" vertex="1">
          <mxGeometry x="200" y="710" width="420" height="260" as="geometry" />
        </mxCell>
        <mxCell id="xdmrDdHuAQ9QDbXB6d65-25" value="" style="endArrow=none;html=1;rounded=0;strokeColor=#FFB366;startArrow=open;startFill=0;endFill=0;entryX=0.5;entryY=1;entryDx=0;entryDy=0;exitX=0.5;exitY=0;exitDx=0;exitDy=0;" parent="1" source="xdmrDdHuAQ9QDbXB6d65-22" target="xdmrDdHuAQ9QDbXB6d65-4" edge="1">
          <mxGeometry width="50" height="50" relative="1" as="geometry">
            <mxPoint x="340" y="770" as="sourcePoint" />
            <mxPoint x="380" y="690" as="targetPoint" />
          </mxGeometry>
        </mxCell>
        <mxCell id="xdmrDdHuAQ9QDbXB6d65-27" value="" style="endArrow=none;html=1;rounded=0;strokeColor=#FFB366;startArrow=open;startFill=0;endFill=0;entryX=0.5;entryY=1;entryDx=0;entryDy=0;exitX=0.5;exitY=0;exitDx=0;exitDy=0;" parent="1" source="xdmrDdHuAQ9QDbXB6d65-23" target="xdmrDdHuAQ9QDbXB6d65-4" edge="1">
          <mxGeometry width="50" height="50" relative="1" as="geometry">
            <mxPoint x="380" y="900" as="sourcePoint" />
            <mxPoint x="320" y="850" as="targetPoint" />
          </mxGeometry>
        </mxCell>
        <mxCell id="1ZzLorKd17TTzzQaAokJ-24" value="" style="endArrow=none;html=1;rounded=0;strokeColor=#FFB366;startArrow=open;startFill=0;endFill=0;entryX=0.5;entryY=1;entryDx=0;entryDy=0;exitX=0.5;exitY=0;exitDx=0;exitDy=0;" parent="1" source="1ZzLorKd17TTzzQaAokJ-2" target="Kd89IbtlPx_BLbznbSWo-30" edge="1">
          <mxGeometry width="50" height="50" relative="1" as="geometry">
            <mxPoint x="750" y="880" as="sourcePoint" />
            <mxPoint x="760" y="800" as="targetPoint" />
          </mxGeometry>
        </mxCell>
        <mxCell id="Kd89IbtlPx_BLbznbSWo-30" value="gather-mc" style="rounded=1;whiteSpace=wrap;html=1;" parent="1" vertex="1">
          <mxGeometry x="810" y="740" width="80" height="30" as="geometry" />
        </mxCell>
        <mxCell id="Kd89IbtlPx_BLbznbSWo-31" value="gather-dmcu" style="rounded=1;whiteSpace=wrap;html=1;" parent="1" vertex="1">
          <mxGeometry x="660" y="796" width="80" height="30" as="geometry" />
        </mxCell>
        <mxCell id="Kd89IbtlPx_BLbznbSWo-67" value="媒体单向网络" style="text;html=1;resizable=0;autosize=1;align=center;verticalAlign=middle;points=[];fillColor=none;strokeColor=none;rounded=0;shadow=0;dashed=1;fontColor=#ff0000;" parent="1" vertex="1">
          <mxGeometry x="950" y="710" width="100" height="30" as="geometry" />
        </mxCell>
        <mxCell id="Kd89IbtlPx_BLbznbSWo-68" value="媒体流" style="endArrow=open;startArrow=none;html=1;exitX=1;exitY=0.5;exitDx=0;exitDy=0;rounded=0;endFill=0;startFill=0;dashed=1;strokeColor=#006633;" parent="1" edge="1">
          <mxGeometry x="-0.0009" y="10" width="50" height="50" relative="1" as="geometry">
            <mxPoint x="966" y="689.71" as="sourcePoint" />
            <mxPoint x="1046" y="690" as="targetPoint" />
            <mxPoint as="offset" />
          </mxGeometry>
        </mxCell>
        <mxCell id="Kd89IbtlPx_BLbznbSWo-69" value="消息流" style="endArrow=open;html=1;rounded=0;strokeColor=#FFB366;startArrow=none;startFill=0;exitX=1;exitY=0.5;exitDx=0;exitDy=0;endFill=0;fontSize=8;" parent="1" edge="1">
          <mxGeometry y="10" width="50" height="50" relative="1" as="geometry">
            <mxPoint x="966" y="660" as="sourcePoint" />
            <mxPoint x="1046" y="660" as="targetPoint" />
            <mxPoint as="offset" />
          </mxGeometry>
        </mxCell>
        <mxCell id="1ZzLorKd17TTzzQaAokJ-2" value="hls" style="rounded=1;whiteSpace=wrap;html=1;fillColor=#99CCFF;" parent="1" vertex="1">
          <mxGeometry x="710" y="850" width="80" height="30" as="geometry" />
        </mxCell>
        <mxCell id="1ZzLorKd17TTzzQaAokJ-4" value="hls" style="rounded=1;whiteSpace=wrap;html=1;fillColor=#99CCFF;" parent="1" vertex="1">
          <mxGeometry x="660" y="910" width="80" height="30" as="geometry" />
        </mxCell>
        <mxCell id="1ZzLorKd17TTzzQaAokJ-5" value="hls" style="rounded=1;whiteSpace=wrap;html=1;fillColor=#99CCFF;" parent="1" vertex="1">
          <mxGeometry x="750" y="910" width="80" height="30" as="geometry" />
        </mxCell>
        <mxCell id="1ZzLorKd17TTzzQaAokJ-13" value="" style="endArrow=open;startArrow=none;html=1;entryX=0.5;entryY=0;entryDx=0;entryDy=0;rounded=0;endFill=0;startFill=0;dashed=1;strokeColor=#006633;exitX=0.5;exitY=1;exitDx=0;exitDy=0;" parent="1" source="1ZzLorKd17TTzzQaAokJ-2" target="1ZzLorKd17TTzzQaAokJ-5" edge="1">
          <mxGeometry width="50" height="50" relative="1" as="geometry">
            <mxPoint x="880" y="910" as="sourcePoint" />
            <mxPoint x="900" y="940" as="targetPoint" />
          </mxGeometry>
        </mxCell>
        <mxCell id="1ZzLorKd17TTzzQaAokJ-17" value="H5" style="rounded=1;whiteSpace=wrap;html=1;fillColor=#99FFFF;" parent="1" vertex="1">
          <mxGeometry x="856" y="988" width="80" height="30" as="geometry" />
        </mxCell>
        <mxCell id="1ZzLorKd17TTzzQaAokJ-18" value="H5" style="rounded=1;whiteSpace=wrap;html=1;fillColor=#99FFFF;" parent="1" vertex="1">
          <mxGeometry x="946" y="988" width="80" height="30" as="geometry" />
        </mxCell>
        <mxCell id="1ZzLorKd17TTzzQaAokJ-21" value="" style="endArrow=open;startArrow=none;html=1;rounded=0;endFill=0;startFill=0;dashed=1;strokeColor=#006633;exitX=0.5;exitY=1;exitDx=0;exitDy=0;entryX=0.5;entryY=0;entryDx=0;entryDy=0;" parent="1" source="xdmrDdHuAQ9QDbXB6d65-47" target="1ZzLorKd17TTzzQaAokJ-17" edge="1">
          <mxGeometry width="50" height="50" relative="1" as="geometry">
            <mxPoint x="899.66" y="960" as="sourcePoint" />
            <mxPoint x="899.66" y="984" as="targetPoint" />
          </mxGeometry>
        </mxCell>
        <mxCell id="1ZzLorKd17TTzzQaAokJ-22" value="" style="endArrow=open;startArrow=none;html=1;rounded=0;endFill=0;startFill=0;dashed=1;strokeColor=#006633;exitX=0.5;exitY=1;exitDx=0;exitDy=0;entryX=0.5;entryY=0;entryDx=0;entryDy=0;" parent="1" source="xdmrDdHuAQ9QDbXB6d65-48" target="1ZzLorKd17TTzzQaAokJ-18" edge="1">
          <mxGeometry width="50" height="50" relative="1" as="geometry">
            <mxPoint x="999.6600000000001" y="960" as="sourcePoint" />
            <mxPoint x="970" y="990" as="targetPoint" />
          </mxGeometry>
        </mxCell>
        <mxCell id="1ZzLorKd17TTzzQaAokJ-23" value="" style="endArrow=none;html=1;rounded=0;strokeColor=#FFB366;startArrow=open;startFill=0;exitX=1;exitY=0.5;exitDx=0;exitDy=0;endFill=0;entryX=0.5;entryY=1;entryDx=0;entryDy=0;" parent="1" source="Kd89IbtlPx_BLbznbSWo-31" target="Kd89IbtlPx_BLbznbSWo-30" edge="1">
          <mxGeometry width="50" height="50" relative="1" as="geometry">
            <mxPoint x="820" y="820" as="sourcePoint" />
            <mxPoint x="670" y="780" as="targetPoint" />
          </mxGeometry>
        </mxCell>
        <mxCell id="OHjsqi2Uj-dsCTkNZmKD-3" value="dmcu" style="rounded=1;whiteSpace=wrap;html=1;" parent="1" vertex="1">
          <mxGeometry x="220" y="860" width="80" height="30" as="geometry" />
        </mxCell>
        <mxCell id="xdmrDdHuAQ9QDbXB6d65-3" value="ma" style="rounded=1;whiteSpace=wrap;html=1;" parent="1" vertex="1">
          <mxGeometry x="380" y="810" width="80" height="30" as="geometry" />
        </mxCell>
        <mxCell id="xdmrDdHuAQ9QDbXB6d65-6" value="sig-server" style="rounded=1;whiteSpace=wrap;html=1;" parent="1" vertex="1">
          <mxGeometry x="680" y="650" width="80" height="30" as="geometry" />
        </mxCell>
        <mxCell id="xdmrDdHuAQ9QDbXB6d65-7" value="rm" style="rounded=1;whiteSpace=wrap;html=1;" parent="1" vertex="1">
          <mxGeometry x="580" y="650" width="80" height="30" as="geometry" />
        </mxCell>
        <mxCell id="xdmrDdHuAQ9QDbXB6d65-8" value="rs" style="rounded=1;whiteSpace=wrap;html=1;" parent="1" vertex="1">
          <mxGeometry x="520" y="810" width="80" height="30" as="geometry" />
        </mxCell>
        <mxCell id="xdmrDdHuAQ9QDbXB6d65-9" value="mc-access" style="rounded=1;whiteSpace=wrap;html=1;" parent="1" vertex="1">
          <mxGeometry x="480" y="650" width="80" height="30" as="geometry" />
        </mxCell>
        <mxCell id="xdmrDdHuAQ9QDbXB6d65-10" value="surv-sig" style="rounded=1;whiteSpace=wrap;html=1;" parent="1" vertex="1">
          <mxGeometry x="380" y="650" width="80" height="30" as="geometry" />
        </mxCell>
        <mxCell id="xdmrDdHuAQ9QDbXB6d65-16" value="" style="endArrow=none;html=1;rounded=0;strokeColor=#FFB366;startArrow=open;startFill=0;endFill=0;entryX=0;entryY=0.5;entryDx=0;entryDy=0;exitX=1;exitY=0.5;exitDx=0;exitDy=0;" parent="1" source="xdmrDdHuAQ9QDbXB6d65-7" target="xdmrDdHuAQ9QDbXB6d65-6" edge="1">
          <mxGeometry width="50" height="50" relative="1" as="geometry">
            <mxPoint x="770" y="820" as="sourcePoint" />
            <mxPoint x="770" y="690" as="targetPoint" />
          </mxGeometry>
        </mxCell>
        <mxCell id="xdmrDdHuAQ9QDbXB6d65-17" value="" style="endArrow=none;html=1;rounded=0;strokeColor=#FFB366;startArrow=open;startFill=0;endFill=0;entryX=0;entryY=0.5;entryDx=0;entryDy=0;exitX=1;exitY=0.5;exitDx=0;exitDy=0;" parent="1" source="xdmrDdHuAQ9QDbXB6d65-9" target="xdmrDdHuAQ9QDbXB6d65-7" edge="1">
          <mxGeometry width="50" height="50" relative="1" as="geometry">
            <mxPoint x="560" y="640" as="sourcePoint" />
            <mxPoint x="580" y="640" as="targetPoint" />
          </mxGeometry>
        </mxCell>
        <mxCell id="xdmrDdHuAQ9QDbXB6d65-18" value="" style="endArrow=none;html=1;rounded=0;strokeColor=#FFB366;startArrow=open;startFill=0;endFill=0;entryX=0;entryY=0.5;entryDx=0;entryDy=0;exitX=1;exitY=0.5;exitDx=0;exitDy=0;" parent="1" source="xdmrDdHuAQ9QDbXB6d65-10" target="xdmrDdHuAQ9QDbXB6d65-9" edge="1">
          <mxGeometry width="50" height="50" relative="1" as="geometry">
            <mxPoint x="680" y="685" as="sourcePoint" />
            <mxPoint x="700" y="685" as="targetPoint" />
          </mxGeometry>
        </mxCell>
        <mxCell id="Kd89IbtlPx_BLbznbSWo-66" value="媒体双向网络" style="text;html=1;resizable=0;autosize=1;align=center;verticalAlign=middle;points=[];fillColor=none;strokeColor=none;rounded=0;shadow=0;dashed=1;fontColor=#3333ff;" parent="1" vertex="1">
          <mxGeometry x="200" y="710" width="100" height="30" as="geometry" />
        </mxCell>
        <mxCell id="xdmrDdHuAQ9QDbXB6d65-21" value="" style="endArrow=open;html=1;strokeColor=#FFB366;startArrow=open;startFill=0;endFill=0;entryX=0;entryY=0.5;entryDx=0;entryDy=0;exitX=1;exitY=0.5;exitDx=0;exitDy=0;strokeWidth=1;rounded=1;" parent="1" source="xdmrDdHuAQ9QDbXB6d65-4" target="Kd89IbtlPx_BLbznbSWo-30" edge="1">
          <mxGeometry width="50" height="50" relative="1" as="geometry">
            <mxPoint x="310" y="720" as="sourcePoint" />
            <mxPoint x="579.9999999999998" y="690" as="targetPoint" />
            <Array as="points" />
          </mxGeometry>
        </mxCell>
        <mxCell id="xdmrDdHuAQ9QDbXB6d65-22" value="dmcu" style="rounded=1;whiteSpace=wrap;html=1;" parent="1" vertex="1">
          <mxGeometry x="220" y="917" width="80" height="30" as="geometry" />
        </mxCell>
        <mxCell id="xdmrDdHuAQ9QDbXB6d65-23" value="dmcu" style="rounded=1;whiteSpace=wrap;html=1;" parent="1" vertex="1">
          <mxGeometry x="380" y="917" width="80" height="30" as="geometry" />
        </mxCell>
        <mxCell id="xdmrDdHuAQ9QDbXB6d65-4" value="mc" style="rounded=1;whiteSpace=wrap;html=1;" parent="1" vertex="1">
          <mxGeometry x="270" y="740" width="80" height="30" as="geometry" />
        </mxCell>
        <mxCell id="xdmrDdHuAQ9QDbXB6d65-30" value="" style="endArrow=none;html=1;rounded=0;strokeColor=#FFB366;startArrow=open;startFill=0;endFill=0;entryX=0.5;entryY=1;entryDx=0;entryDy=0;exitX=0.5;exitY=0;exitDx=0;exitDy=0;" parent="1" source="OHjsqi2Uj-dsCTkNZmKD-4" target="xdmrDdHuAQ9QDbXB6d65-10" edge="1">
          <mxGeometry width="50" height="50" relative="1" as="geometry">
            <mxPoint x="460.0000000000002" y="690" as="sourcePoint" />
            <mxPoint x="479.9999999999998" y="690" as="targetPoint" />
          </mxGeometry>
        </mxCell>
        <mxCell id="xdmrDdHuAQ9QDbXB6d65-31" value="" style="endArrow=open;startArrow=none;html=1;exitX=0;exitY=0.5;exitDx=0;exitDy=0;entryX=1;entryY=0.5;entryDx=0;entryDy=0;rounded=0;endFill=0;startFill=0;dashed=1;strokeColor=#006633;" parent="1" source="xdmrDdHuAQ9QDbXB6d65-8" target="xdmrDdHuAQ9QDbXB6d65-3" edge="1">
          <mxGeometry width="50" height="50" relative="1" as="geometry">
            <mxPoint x="569.9999999999998" y="885" as="sourcePoint" />
            <mxPoint x="469.9999999999998" y="905" as="targetPoint" />
          </mxGeometry>
        </mxCell>
        <mxCell id="xdmrDdHuAQ9QDbXB6d65-32" value="" style="endArrow=open;startArrow=none;html=1;exitX=0.5;exitY=1;exitDx=0;exitDy=0;entryX=0.5;entryY=0;entryDx=0;entryDy=0;rounded=0;endFill=0;startFill=0;dashed=1;strokeColor=#006633;" parent="1" source="xdmrDdHuAQ9QDbXB6d65-3" target="xdmrDdHuAQ9QDbXB6d65-35" edge="1">
          <mxGeometry width="50" height="50" relative="1" as="geometry">
            <mxPoint x="549.9999999999998" y="910" as="sourcePoint" />
            <mxPoint x="449.9999999999998" y="930" as="targetPoint" />
          </mxGeometry>
        </mxCell>
        <mxCell id="xdmrDdHuAQ9QDbXB6d65-33" value="" style="endArrow=open;startArrow=none;html=1;entryX=0;entryY=1;entryDx=0;entryDy=0;rounded=0;endFill=0;startFill=0;dashed=1;strokeColor=#006633;exitX=1;exitY=0.5;exitDx=0;exitDy=0;" parent="1" source="xdmrDdHuAQ9QDbXB6d65-35" target="xdmrDdHuAQ9QDbXB6d65-8" edge="1">
          <mxGeometry width="50" height="50" relative="1" as="geometry">
            <mxPoint x="550" y="910" as="sourcePoint" />
            <mxPoint x="459.9999999999998" y="930" as="targetPoint" />
            <Array as="points" />
          </mxGeometry>
        </mxCell>
        <mxCell id="xdmrDdHuAQ9QDbXB6d65-34" value="" style="endArrow=open;startArrow=open;html=1;exitX=0;exitY=0.5;exitDx=0;exitDy=0;entryX=1;entryY=0.5;entryDx=0;entryDy=0;rounded=0;endFill=0;startFill=0;dashed=1;strokeColor=#006633;" parent="1" source="xdmrDdHuAQ9QDbXB6d65-35" target="OHjsqi2Uj-dsCTkNZmKD-3" edge="1">
          <mxGeometry width="50" height="50" relative="1" as="geometry">
            <mxPoint x="389.9999999999998" y="880" as="sourcePoint" />
            <mxPoint x="289.9999999999998" y="900" as="targetPoint" />
          </mxGeometry>
        </mxCell>
        <mxCell id="xdmrDdHuAQ9QDbXB6d65-35" value="dmcu" style="rounded=1;whiteSpace=wrap;html=1;" parent="1" vertex="1">
          <mxGeometry x="380" y="860" width="80" height="30" as="geometry" />
        </mxCell>
        <mxCell id="xdmrDdHuAQ9QDbXB6d65-40" value="" style="endArrow=open;startArrow=open;html=1;exitX=0;exitY=0.5;exitDx=0;exitDy=0;entryX=1;entryY=0.5;entryDx=0;entryDy=0;rounded=0;endFill=0;startFill=0;dashed=1;strokeColor=#006633;" parent="1" source="xdmrDdHuAQ9QDbXB6d65-23" target="xdmrDdHuAQ9QDbXB6d65-22" edge="1">
          <mxGeometry width="50" height="50" relative="1" as="geometry">
            <mxPoint x="319.9999999999998" y="988" as="sourcePoint" />
            <mxPoint x="219.99999999999977" y="1008" as="targetPoint" />
          </mxGeometry>
        </mxCell>
        <mxCell id="xdmrDdHuAQ9QDbXB6d65-41" value="" style="endArrow=open;startArrow=open;html=1;exitX=0.5;exitY=1;exitDx=0;exitDy=0;entryX=0.5;entryY=0;entryDx=0;entryDy=0;rounded=0;endFill=0;startFill=0;dashed=1;strokeColor=#006633;" parent="1" source="OHjsqi2Uj-dsCTkNZmKD-3" target="xdmrDdHuAQ9QDbXB6d65-22" edge="1">
          <mxGeometry width="50" height="50" relative="1" as="geometry">
            <mxPoint x="259.9999999999998" y="1000" as="sourcePoint" />
            <mxPoint x="159.99999999999977" y="1020" as="targetPoint" />
          </mxGeometry>
        </mxCell>
        <mxCell id="xdmrDdHuAQ9QDbXB6d65-42" value="" style="endArrow=open;startArrow=open;html=1;exitX=0.5;exitY=1;exitDx=0;exitDy=0;entryX=0.5;entryY=0;entryDx=0;entryDy=0;rounded=0;endFill=0;startFill=0;dashed=1;strokeColor=#006633;" parent="1" source="xdmrDdHuAQ9QDbXB6d65-35" target="xdmrDdHuAQ9QDbXB6d65-23" edge="1">
          <mxGeometry width="50" height="50" relative="1" as="geometry">
            <mxPoint x="449.9999999999998" y="1018" as="sourcePoint" />
            <mxPoint x="349.9999999999998" y="1038" as="targetPoint" />
          </mxGeometry>
        </mxCell>
        <mxCell id="xdmrDdHuAQ9QDbXB6d65-43" value="" style="endArrow=none;html=1;rounded=0;strokeColor=#FFB366;startArrow=open;startFill=0;endFill=0;entryX=0.5;entryY=1;entryDx=0;entryDy=0;exitX=0.25;exitY=0;exitDx=0;exitDy=0;" parent="1" source="xdmrDdHuAQ9QDbXB6d65-35" target="xdmrDdHuAQ9QDbXB6d65-4" edge="1">
          <mxGeometry width="50" height="50" relative="1" as="geometry">
            <mxPoint x="430" y="910" as="sourcePoint" />
            <mxPoint x="320" y="780" as="targetPoint" />
          </mxGeometry>
        </mxCell>
        <mxCell id="xdmrDdHuAQ9QDbXB6d65-44" value="" style="endArrow=none;html=1;rounded=0;strokeColor=#FFB366;startArrow=open;startFill=0;endFill=0;entryX=0.5;entryY=1;entryDx=0;entryDy=0;exitX=0.25;exitY=0;exitDx=0;exitDy=0;" parent="1" source="OHjsqi2Uj-dsCTkNZmKD-3" target="xdmrDdHuAQ9QDbXB6d65-4" edge="1">
          <mxGeometry width="50" height="50" relative="1" as="geometry">
            <mxPoint x="270" y="910" as="sourcePoint" />
            <mxPoint x="320" y="780" as="targetPoint" />
          </mxGeometry>
        </mxCell>
        <mxCell id="xdmrDdHuAQ9QDbXB6d65-45" value="" style="endArrow=open;startArrow=none;html=1;entryX=0;entryY=0.5;entryDx=0;entryDy=0;rounded=0;endFill=0;startFill=0;dashed=1;strokeColor=#006633;exitX=1;exitY=0.5;exitDx=0;exitDy=0;" parent="1" source="xdmrDdHuAQ9QDbXB6d65-23" target="Kd89IbtlPx_BLbznbSWo-31" edge="1">
          <mxGeometry width="50" height="50" relative="1" as="geometry">
            <mxPoint x="470" y="865" as="sourcePoint" />
            <mxPoint x="569.9999999999998" y="820" as="targetPoint" />
            <Array as="points" />
          </mxGeometry>
        </mxCell>
        <mxCell id="xdmrDdHuAQ9QDbXB6d65-46" value="hls" style="rounded=1;whiteSpace=wrap;html=1;fillColor=#99CCFF;" parent="1" vertex="1">
          <mxGeometry x="896" y="850" width="80" height="30" as="geometry" />
        </mxCell>
        <mxCell id="xdmrDdHuAQ9QDbXB6d65-47" value="hls" style="rounded=1;whiteSpace=wrap;html=1;fillColor=#99CCFF;" parent="1" vertex="1">
          <mxGeometry x="856" y="910" width="80" height="30" as="geometry" />
        </mxCell>
        <mxCell id="xdmrDdHuAQ9QDbXB6d65-48" value="hls" style="rounded=1;whiteSpace=wrap;html=1;fillColor=#99CCFF;" parent="1" vertex="1">
          <mxGeometry x="946" y="910" width="80" height="30" as="geometry" />
        </mxCell>
        <mxCell id="xdmrDdHuAQ9QDbXB6d65-49" value="" style="endArrow=open;startArrow=none;html=1;exitX=0.5;exitY=1;exitDx=0;exitDy=0;entryX=0.5;entryY=0;entryDx=0;entryDy=0;rounded=0;endFill=0;startFill=0;dashed=1;strokeColor=#006633;" parent="1" source="Kd89IbtlPx_BLbznbSWo-31" target="1ZzLorKd17TTzzQaAokJ-2" edge="1">
          <mxGeometry width="50" height="50" relative="1" as="geometry">
            <mxPoint x="709.9999999999998" y="820" as="sourcePoint" />
            <mxPoint x="709.9999999999998" y="910" as="targetPoint" />
          </mxGeometry>
        </mxCell>
        <mxCell id="xdmrDdHuAQ9QDbXB6d65-50" value="" style="endArrow=open;startArrow=none;html=1;exitX=1;exitY=0.5;exitDx=0;exitDy=0;entryX=0;entryY=0;entryDx=0;entryDy=0;rounded=0;endFill=0;startFill=0;dashed=1;strokeColor=#006633;" parent="1" source="Kd89IbtlPx_BLbznbSWo-31" target="xdmrDdHuAQ9QDbXB6d65-46" edge="1">
          <mxGeometry width="50" height="50" relative="1" as="geometry">
            <mxPoint x="769.9999999999998" y="800" as="sourcePoint" />
            <mxPoint x="829.9999999999998" y="830" as="targetPoint" />
          </mxGeometry>
        </mxCell>
        <mxCell id="xdmrDdHuAQ9QDbXB6d65-51" value="" style="endArrow=open;startArrow=none;html=1;entryX=0.5;entryY=0;entryDx=0;entryDy=0;rounded=0;endFill=0;startFill=0;dashed=1;strokeColor=#006633;exitX=0.5;exitY=1;exitDx=0;exitDy=0;" parent="1" source="1ZzLorKd17TTzzQaAokJ-2" target="1ZzLorKd17TTzzQaAokJ-4" edge="1">
          <mxGeometry width="50" height="50" relative="1" as="geometry">
            <mxPoint x="849.9999999999998" y="880" as="sourcePoint" />
            <mxPoint x="889.9999999999998" y="910" as="targetPoint" />
          </mxGeometry>
        </mxCell>
        <mxCell id="xdmrDdHuAQ9QDbXB6d65-52" value="" style="endArrow=open;startArrow=none;html=1;entryX=0.5;entryY=0;entryDx=0;entryDy=0;rounded=0;endFill=0;startFill=0;dashed=1;strokeColor=#006633;exitX=0.5;exitY=1;exitDx=0;exitDy=0;" parent="1" source="xdmrDdHuAQ9QDbXB6d65-46" target="xdmrDdHuAQ9QDbXB6d65-47" edge="1">
          <mxGeometry width="50" height="50" relative="1" as="geometry">
            <mxPoint x="919.9999999999998" y="860" as="sourcePoint" />
            <mxPoint x="959.9999999999998" y="890" as="targetPoint" />
          </mxGeometry>
        </mxCell>
        <mxCell id="xdmrDdHuAQ9QDbXB6d65-53" value="" style="endArrow=open;startArrow=none;html=1;entryX=0.5;entryY=0;entryDx=0;entryDy=0;rounded=0;endFill=0;startFill=0;dashed=1;strokeColor=#006633;exitX=0.5;exitY=1;exitDx=0;exitDy=0;" parent="1" source="xdmrDdHuAQ9QDbXB6d65-46" target="xdmrDdHuAQ9QDbXB6d65-48" edge="1">
          <mxGeometry width="50" height="50" relative="1" as="geometry">
            <mxPoint x="989.9999999999998" y="870" as="sourcePoint" />
            <mxPoint x="1029.9999999999998" y="900" as="targetPoint" />
          </mxGeometry>
        </mxCell>
        <mxCell id="xdmrDdHuAQ9QDbXB6d65-54" value="" style="endArrow=none;html=1;rounded=0;strokeColor=#FFB366;startArrow=open;startFill=0;endFill=0;entryX=0.5;entryY=1;entryDx=0;entryDy=0;exitX=0.5;exitY=0;exitDx=0;exitDy=0;" parent="1" source="xdmrDdHuAQ9QDbXB6d65-46" target="Kd89IbtlPx_BLbznbSWo-30" edge="1">
          <mxGeometry width="50" height="50" relative="1" as="geometry">
            <mxPoint x="849.9999999999998" y="850" as="sourcePoint" />
            <mxPoint x="859.9999999999998" y="780" as="targetPoint" />
          </mxGeometry>
        </mxCell>
        <mxCell id="xdmrDdHuAQ9QDbXB6d65-57" value="ep" style="rounded=1;whiteSpace=wrap;html=1;" parent="1" vertex="1">
          <mxGeometry x="220" y="988" width="80" height="30" as="geometry" />
        </mxCell>
        <mxCell id="xdmrDdHuAQ9QDbXB6d65-58" value="" style="endArrow=open;startArrow=open;html=1;exitX=0.5;exitY=1;exitDx=0;exitDy=0;entryX=0.5;entryY=0;entryDx=0;entryDy=0;rounded=0;endFill=0;startFill=0;dashed=1;strokeColor=#006633;" parent="1" source="xdmrDdHuAQ9QDbXB6d65-22" target="xdmrDdHuAQ9QDbXB6d65-57" edge="1">
          <mxGeometry width="50" height="50" relative="1" as="geometry">
            <mxPoint x="380" y="1002.62" as="sourcePoint" />
            <mxPoint x="300" y="1002.62" as="targetPoint" />
          </mxGeometry>
        </mxCell>
        <mxCell id="xdmrDdHuAQ9QDbXB6d65-59" value="" style="endArrow=none;html=1;rounded=0;strokeColor=#FFB366;startArrow=open;startFill=0;endFill=0;entryX=0.5;entryY=1;entryDx=0;entryDy=0;exitX=0.5;exitY=0;exitDx=0;exitDy=0;" parent="1" source="xdmrDdHuAQ9QDbXB6d65-3" target="OHjsqi2Uj-dsCTkNZmKD-4" edge="1">
          <mxGeometry width="50" height="50" relative="1" as="geometry">
            <mxPoint x="440" y="700" as="sourcePoint" />
            <mxPoint x="469.9999999999998" y="700" as="targetPoint" />
          </mxGeometry>
        </mxCell>
        <mxCell id="xdmrDdHuAQ9QDbXB6d65-60" value="" style="endArrow=none;html=1;rounded=0;strokeColor=#FFB366;startArrow=open;startFill=0;endFill=0;entryX=0.5;entryY=1;entryDx=0;entryDy=0;exitX=0.5;exitY=0;exitDx=0;exitDy=0;" parent="1" source="xdmrDdHuAQ9QDbXB6d65-8" target="xdmrDdHuAQ9QDbXB6d65-7" edge="1">
          <mxGeometry width="50" height="50" relative="1" as="geometry">
            <mxPoint x="709.9999999999998" y="690" as="sourcePoint" />
            <mxPoint x="729.9999999999998" y="690" as="targetPoint" />
          </mxGeometry>
        </mxCell>
        <mxCell id="xdmrDdHuAQ9QDbXB6d65-61" value="" style="endArrow=none;html=1;rounded=0;strokeColor=#FFB366;startArrow=open;startFill=0;endFill=0;entryX=0;entryY=0.5;entryDx=0;entryDy=0;exitX=0.5;exitY=0;exitDx=0;exitDy=0;" parent="1" source="xdmrDdHuAQ9QDbXB6d65-4" target="xdmrDdHuAQ9QDbXB6d65-10" edge="1">
          <mxGeometry width="50" height="50" relative="1" as="geometry">
            <mxPoint x="609.9999999999998" y="690" as="sourcePoint" />
            <mxPoint x="629.9999999999998" y="690" as="targetPoint" />
            <Array as="points">
              <mxPoint x="310" y="665" />
            </Array>
          </mxGeometry>
        </mxCell>
        <mxCell id="OHjsqi2Uj-dsCTkNZmKD-4" value="shuttle" style="rounded=1;whiteSpace=wrap;html=1;" parent="1" vertex="1">
          <mxGeometry x="380" y="766" width="80" height="30" as="geometry" />
        </mxCell>
        <mxCell id="xdmrDdHuAQ9QDbXB6d65-64" value="" style="endArrow=none;html=1;rounded=0;strokeColor=#FFB366;startArrow=open;startFill=0;endFill=0;entryX=0.5;entryY=1;entryDx=0;entryDy=0;exitX=0;exitY=0.5;exitDx=0;exitDy=0;" parent="1" source="Kd89IbtlPx_BLbznbSWo-30" target="xdmrDdHuAQ9QDbXB6d65-9" edge="1">
          <mxGeometry width="50" height="50" relative="1" as="geometry">
            <mxPoint x="609.9999999999998" y="790" as="sourcePoint" />
            <mxPoint x="629.9999999999998" y="690" as="targetPoint" />
          </mxGeometry>
        </mxCell>
        <mxCell id="xdmrDdHuAQ9QDbXB6d65-66" value="ep" style="rounded=1;whiteSpace=wrap;html=1;" parent="1" vertex="1">
          <mxGeometry x="380" y="988" width="80" height="30" as="geometry" />
        </mxCell>
        <mxCell id="xdmrDdHuAQ9QDbXB6d65-67" value="" style="endArrow=open;startArrow=open;html=1;exitX=0.5;exitY=1;exitDx=0;exitDy=0;entryX=0.5;entryY=0;entryDx=0;entryDy=0;rounded=0;endFill=0;startFill=0;dashed=1;strokeColor=#006633;" parent="1" source="xdmrDdHuAQ9QDbXB6d65-23" target="xdmrDdHuAQ9QDbXB6d65-66" edge="1">
          <mxGeometry width="50" height="50" relative="1" as="geometry">
            <mxPoint x="360" y="940" as="sourcePoint" />
            <mxPoint x="360" y="998" as="targetPoint" />
          </mxGeometry>
        </mxCell>
        <mxCell id="3sSD05mplpoPzoIQ_q1C-1" value="H5" style="rounded=1;whiteSpace=wrap;html=1;fillColor=#99FFFF;" vertex="1" parent="1">
          <mxGeometry x="660" y="988" width="80" height="30" as="geometry" />
        </mxCell>
        <mxCell id="3sSD05mplpoPzoIQ_q1C-2" value="H5" style="rounded=1;whiteSpace=wrap;html=1;fillColor=#99FFFF;" vertex="1" parent="1">
          <mxGeometry x="750" y="988" width="80" height="30" as="geometry" />
        </mxCell>
        <mxCell id="3sSD05mplpoPzoIQ_q1C-3" value="" style="endArrow=open;startArrow=none;html=1;rounded=0;endFill=0;startFill=0;dashed=1;strokeColor=#006633;exitX=0.5;exitY=1;exitDx=0;exitDy=0;" edge="1" parent="1" source="1ZzLorKd17TTzzQaAokJ-4">
          <mxGeometry width="50" height="50" relative="1" as="geometry">
            <mxPoint x="699.72" y="950.0000000000002" as="sourcePoint" />
            <mxPoint x="700" y="990" as="targetPoint" />
          </mxGeometry>
        </mxCell>
        <mxCell id="3sSD05mplpoPzoIQ_q1C-4" value="" style="endArrow=open;startArrow=none;html=1;rounded=0;endFill=0;startFill=0;dashed=1;strokeColor=#006633;exitX=0.5;exitY=1;exitDx=0;exitDy=0;entryX=0.5;entryY=0;entryDx=0;entryDy=0;" edge="1" parent="1" source="1ZzLorKd17TTzzQaAokJ-5" target="3sSD05mplpoPzoIQ_q1C-2">
          <mxGeometry width="50" height="50" relative="1" as="geometry">
            <mxPoint x="780" y="950.0000000000002" as="sourcePoint" />
            <mxPoint x="780" y="1000.0000000000002" as="targetPoint" />
          </mxGeometry>
        </mxCell>
        <mxCell id="3sSD05mplpoPzoIQ_q1C-5" value="" style="ellipse;whiteSpace=wrap;html=1;fillColor=none;strokeColor=#CFCFCF;dashed=1;" vertex="1" parent="1">
          <mxGeometry x="650" y="843" width="190" height="127" as="geometry" />
        </mxCell>
        <mxCell id="3sSD05mplpoPzoIQ_q1C-6" value="" style="ellipse;whiteSpace=wrap;html=1;fillColor=none;strokeColor=#CFCFCF;dashed=1;" vertex="1" parent="1">
          <mxGeometry x="843" y="843" width="190" height="127" as="geometry" />
        </mxCell>
        <mxCell id="3sSD05mplpoPzoIQ_q1C-7" value="site-86" style="text;html=1;resizable=0;autosize=1;align=center;verticalAlign=middle;points=[];fillColor=none;strokeColor=none;rounded=0;dashed=1;" vertex="1" parent="1">
          <mxGeometry x="715" y="947" width="60" height="30" as="geometry" />
        </mxCell>
        <mxCell id="3sSD05mplpoPzoIQ_q1C-8" value="site-87" style="text;html=1;resizable=0;autosize=1;align=center;verticalAlign=middle;points=[];fillColor=none;strokeColor=none;rounded=0;dashed=1;" vertex="1" parent="1">
          <mxGeometry x="906" y="947" width="60" height="30" as="geometry" />
        </mxCell>
      </root>
    </mxGraphModel>
  </diagram>
  <diagram name="APP看直播" id="mYfIbaoRDlwbGDzJ5zfl">
    <mxGraphModel dx="855" dy="430" grid="1" gridSize="10" guides="1" tooltips="1" connect="1" arrows="1" fold="1" page="1" pageScale="1" pageWidth="827" pageHeight="1169" math="0" shadow="0">
      <root>
        <mxCell id="eVBBevyLOpbmpJ8gu9N7-0" />
        <mxCell id="eVBBevyLOpbmpJ8gu9N7-1" parent="eVBBevyLOpbmpJ8gu9N7-0" />
        <mxCell id="eVBBevyLOpbmpJ8gu9N7-2" value="" style="rounded=0;whiteSpace=wrap;html=1;dashed=1;fontSize=11;strokeColor=#C4C4C4;" vertex="1" parent="eVBBevyLOpbmpJ8gu9N7-1">
          <mxGeometry x="180" y="620" width="990" height="510" as="geometry" />
        </mxCell>
        <mxCell id="eVBBevyLOpbmpJ8gu9N7-3" value="" style="rounded=0;whiteSpace=wrap;html=1;dashed=1;shadow=0;strokeWidth=1;perimeterSpacing=0;strokeColor=#FF0000;" vertex="1" parent="eVBBevyLOpbmpJ8gu9N7-1">
          <mxGeometry x="640" y="710" width="410" height="260" as="geometry" />
        </mxCell>
        <mxCell id="eVBBevyLOpbmpJ8gu9N7-71" value="" style="ellipse;whiteSpace=wrap;html=1;fillColor=none;strokeColor=#CFCFCF;dashed=1;" vertex="1" parent="eVBBevyLOpbmpJ8gu9N7-1">
          <mxGeometry x="650" y="843" width="190" height="127" as="geometry" />
        </mxCell>
        <mxCell id="eVBBevyLOpbmpJ8gu9N7-72" value="" style="ellipse;whiteSpace=wrap;html=1;fillColor=none;strokeColor=#CFCFCF;dashed=1;" vertex="1" parent="eVBBevyLOpbmpJ8gu9N7-1">
          <mxGeometry x="843" y="843" width="190" height="127" as="geometry" />
        </mxCell>
        <mxCell id="eVBBevyLOpbmpJ8gu9N7-4" value="" style="rounded=0;whiteSpace=wrap;html=1;dashed=1;shadow=0;strokeWidth=1;perimeterSpacing=0;fontColor=#3333FF;strokeColor=#3333ff;" vertex="1" parent="eVBBevyLOpbmpJ8gu9N7-1">
          <mxGeometry x="200" y="710" width="420" height="260" as="geometry" />
        </mxCell>
        <mxCell id="eVBBevyLOpbmpJ8gu9N7-5" value="" style="endArrow=none;html=1;rounded=0;strokeColor=#FFB366;startArrow=open;startFill=0;endFill=0;entryX=0.5;entryY=1;entryDx=0;entryDy=0;exitX=0.5;exitY=0;exitDx=0;exitDy=0;" edge="1" parent="eVBBevyLOpbmpJ8gu9N7-1" source="eVBBevyLOpbmpJ8gu9N7-34" target="eVBBevyLOpbmpJ8gu9N7-36">
          <mxGeometry width="50" height="50" relative="1" as="geometry">
            <mxPoint x="340" y="770" as="sourcePoint" />
            <mxPoint x="380" y="690" as="targetPoint" />
          </mxGeometry>
        </mxCell>
        <mxCell id="eVBBevyLOpbmpJ8gu9N7-6" value="" style="endArrow=none;html=1;rounded=0;strokeColor=#FFB366;startArrow=open;startFill=0;endFill=0;entryX=0.5;entryY=1;entryDx=0;entryDy=0;exitX=0.5;exitY=0;exitDx=0;exitDy=0;" edge="1" parent="eVBBevyLOpbmpJ8gu9N7-1" source="eVBBevyLOpbmpJ8gu9N7-35" target="eVBBevyLOpbmpJ8gu9N7-36">
          <mxGeometry width="50" height="50" relative="1" as="geometry">
            <mxPoint x="380" y="900" as="sourcePoint" />
            <mxPoint x="320" y="850" as="targetPoint" />
          </mxGeometry>
        </mxCell>
        <mxCell id="eVBBevyLOpbmpJ8gu9N7-7" value="" style="endArrow=none;html=1;rounded=0;strokeColor=#FFB366;startArrow=open;startFill=0;endFill=0;entryX=0.5;entryY=1;entryDx=0;entryDy=0;exitX=0.5;exitY=0;exitDx=0;exitDy=0;" edge="1" parent="eVBBevyLOpbmpJ8gu9N7-1" source="eVBBevyLOpbmpJ8gu9N7-13" target="eVBBevyLOpbmpJ8gu9N7-8">
          <mxGeometry width="50" height="50" relative="1" as="geometry">
            <mxPoint x="750" y="880" as="sourcePoint" />
            <mxPoint x="760" y="800" as="targetPoint" />
          </mxGeometry>
        </mxCell>
        <mxCell id="eVBBevyLOpbmpJ8gu9N7-8" value="gather-mc" style="rounded=1;whiteSpace=wrap;html=1;" vertex="1" parent="eVBBevyLOpbmpJ8gu9N7-1">
          <mxGeometry x="810" y="740" width="80" height="30" as="geometry" />
        </mxCell>
        <mxCell id="eVBBevyLOpbmpJ8gu9N7-9" value="gather-dmcu" style="rounded=1;whiteSpace=wrap;html=1;" vertex="1" parent="eVBBevyLOpbmpJ8gu9N7-1">
          <mxGeometry x="660" y="796" width="80" height="30" as="geometry" />
        </mxCell>
        <mxCell id="eVBBevyLOpbmpJ8gu9N7-10" value="媒体单向网络" style="text;html=1;resizable=0;autosize=1;align=center;verticalAlign=middle;points=[];fillColor=none;strokeColor=none;rounded=0;shadow=0;dashed=1;fontColor=#ff0000;" vertex="1" parent="eVBBevyLOpbmpJ8gu9N7-1">
          <mxGeometry x="950" y="710" width="100" height="30" as="geometry" />
        </mxCell>
        <mxCell id="eVBBevyLOpbmpJ8gu9N7-11" value="媒体流" style="endArrow=open;startArrow=none;html=1;exitX=1;exitY=0.5;exitDx=0;exitDy=0;rounded=0;endFill=0;startFill=0;dashed=1;strokeColor=#006633;" edge="1" parent="eVBBevyLOpbmpJ8gu9N7-1">
          <mxGeometry x="-0.0009" y="10" width="50" height="50" relative="1" as="geometry">
            <mxPoint x="966" y="689.71" as="sourcePoint" />
            <mxPoint x="1046" y="690" as="targetPoint" />
            <mxPoint as="offset" />
          </mxGeometry>
        </mxCell>
        <mxCell id="eVBBevyLOpbmpJ8gu9N7-12" value="消息流" style="endArrow=open;html=1;rounded=0;strokeColor=#FFB366;startArrow=none;startFill=0;exitX=1;exitY=0.5;exitDx=0;exitDy=0;endFill=0;fontSize=8;" edge="1" parent="eVBBevyLOpbmpJ8gu9N7-1">
          <mxGeometry y="10" width="50" height="50" relative="1" as="geometry">
            <mxPoint x="966" y="660" as="sourcePoint" />
            <mxPoint x="1046" y="660" as="targetPoint" />
            <mxPoint as="offset" />
          </mxGeometry>
        </mxCell>
        <mxCell id="eVBBevyLOpbmpJ8gu9N7-13" value="dmcu" style="rounded=1;whiteSpace=wrap;html=1;fillColor=#99CCFF;" vertex="1" parent="eVBBevyLOpbmpJ8gu9N7-1">
          <mxGeometry x="710" y="850" width="80" height="30" as="geometry" />
        </mxCell>
        <mxCell id="eVBBevyLOpbmpJ8gu9N7-14" value="dmcu" style="rounded=1;whiteSpace=wrap;html=1;fillColor=#99CCFF;" vertex="1" parent="eVBBevyLOpbmpJ8gu9N7-1">
          <mxGeometry x="660" y="910" width="80" height="30" as="geometry" />
        </mxCell>
        <mxCell id="eVBBevyLOpbmpJ8gu9N7-15" value="hls" style="rounded=1;whiteSpace=wrap;html=1;fillColor=#99CCFF;" vertex="1" parent="eVBBevyLOpbmpJ8gu9N7-1">
          <mxGeometry x="750" y="910" width="80" height="30" as="geometry" />
        </mxCell>
        <mxCell id="eVBBevyLOpbmpJ8gu9N7-16" value="" style="endArrow=open;startArrow=none;html=1;entryX=0.5;entryY=0;entryDx=0;entryDy=0;rounded=0;endFill=0;startFill=0;dashed=1;strokeColor=#006633;exitX=0.5;exitY=1;exitDx=0;exitDy=0;" edge="1" parent="eVBBevyLOpbmpJ8gu9N7-1" source="eVBBevyLOpbmpJ8gu9N7-13" target="eVBBevyLOpbmpJ8gu9N7-15">
          <mxGeometry width="50" height="50" relative="1" as="geometry">
            <mxPoint x="880" y="910" as="sourcePoint" />
            <mxPoint x="900" y="940" as="targetPoint" />
          </mxGeometry>
        </mxCell>
        <mxCell id="eVBBevyLOpbmpJ8gu9N7-17" value="APP" style="rounded=1;whiteSpace=wrap;html=1;fillColor=#99FFFF;" vertex="1" parent="eVBBevyLOpbmpJ8gu9N7-1">
          <mxGeometry x="856" y="988" width="80" height="30" as="geometry" />
        </mxCell>
        <mxCell id="eVBBevyLOpbmpJ8gu9N7-18" value="H5" style="rounded=1;whiteSpace=wrap;html=1;fillColor=#99FFFF;" vertex="1" parent="eVBBevyLOpbmpJ8gu9N7-1">
          <mxGeometry x="946" y="988" width="80" height="30" as="geometry" />
        </mxCell>
        <mxCell id="eVBBevyLOpbmpJ8gu9N7-19" value="" style="endArrow=open;startArrow=none;html=1;rounded=0;endFill=0;startFill=0;dashed=1;strokeColor=#006633;exitX=0.5;exitY=1;exitDx=0;exitDy=0;entryX=0.5;entryY=0;entryDx=0;entryDy=0;" edge="1" parent="eVBBevyLOpbmpJ8gu9N7-1" source="eVBBevyLOpbmpJ8gu9N7-50" target="eVBBevyLOpbmpJ8gu9N7-17">
          <mxGeometry width="50" height="50" relative="1" as="geometry">
            <mxPoint x="899.66" y="960" as="sourcePoint" />
            <mxPoint x="899.66" y="984" as="targetPoint" />
          </mxGeometry>
        </mxCell>
        <mxCell id="eVBBevyLOpbmpJ8gu9N7-20" value="" style="endArrow=open;startArrow=none;html=1;rounded=0;endFill=0;startFill=0;dashed=1;strokeColor=#006633;exitX=0.5;exitY=1;exitDx=0;exitDy=0;entryX=0.5;entryY=0;entryDx=0;entryDy=0;" edge="1" parent="eVBBevyLOpbmpJ8gu9N7-1" source="eVBBevyLOpbmpJ8gu9N7-51" target="eVBBevyLOpbmpJ8gu9N7-18">
          <mxGeometry width="50" height="50" relative="1" as="geometry">
            <mxPoint x="999.6600000000001" y="960" as="sourcePoint" />
            <mxPoint x="970" y="990" as="targetPoint" />
          </mxGeometry>
        </mxCell>
        <mxCell id="eVBBevyLOpbmpJ8gu9N7-21" value="" style="endArrow=none;html=1;rounded=0;strokeColor=#FFB366;startArrow=open;startFill=0;exitX=1;exitY=0.5;exitDx=0;exitDy=0;endFill=0;entryX=0.5;entryY=1;entryDx=0;entryDy=0;" edge="1" parent="eVBBevyLOpbmpJ8gu9N7-1" source="eVBBevyLOpbmpJ8gu9N7-9" target="eVBBevyLOpbmpJ8gu9N7-8">
          <mxGeometry width="50" height="50" relative="1" as="geometry">
            <mxPoint x="820" y="820" as="sourcePoint" />
            <mxPoint x="670" y="780" as="targetPoint" />
          </mxGeometry>
        </mxCell>
        <mxCell id="eVBBevyLOpbmpJ8gu9N7-22" value="dmcu" style="rounded=1;whiteSpace=wrap;html=1;" vertex="1" parent="eVBBevyLOpbmpJ8gu9N7-1">
          <mxGeometry x="220" y="860" width="80" height="30" as="geometry" />
        </mxCell>
        <mxCell id="eVBBevyLOpbmpJ8gu9N7-23" value="ma" style="rounded=1;whiteSpace=wrap;html=1;" vertex="1" parent="eVBBevyLOpbmpJ8gu9N7-1">
          <mxGeometry x="380" y="810" width="80" height="30" as="geometry" />
        </mxCell>
        <mxCell id="eVBBevyLOpbmpJ8gu9N7-24" value="sig-server" style="rounded=1;whiteSpace=wrap;html=1;" vertex="1" parent="eVBBevyLOpbmpJ8gu9N7-1">
          <mxGeometry x="680" y="650" width="80" height="30" as="geometry" />
        </mxCell>
        <mxCell id="eVBBevyLOpbmpJ8gu9N7-25" value="rm" style="rounded=1;whiteSpace=wrap;html=1;" vertex="1" parent="eVBBevyLOpbmpJ8gu9N7-1">
          <mxGeometry x="580" y="650" width="80" height="30" as="geometry" />
        </mxCell>
        <mxCell id="eVBBevyLOpbmpJ8gu9N7-26" value="rs" style="rounded=1;whiteSpace=wrap;html=1;" vertex="1" parent="eVBBevyLOpbmpJ8gu9N7-1">
          <mxGeometry x="520" y="810" width="80" height="30" as="geometry" />
        </mxCell>
        <mxCell id="eVBBevyLOpbmpJ8gu9N7-27" value="mc-access" style="rounded=1;whiteSpace=wrap;html=1;" vertex="1" parent="eVBBevyLOpbmpJ8gu9N7-1">
          <mxGeometry x="480" y="650" width="80" height="30" as="geometry" />
        </mxCell>
        <mxCell id="eVBBevyLOpbmpJ8gu9N7-28" value="surv-sig" style="rounded=1;whiteSpace=wrap;html=1;" vertex="1" parent="eVBBevyLOpbmpJ8gu9N7-1">
          <mxGeometry x="380" y="650" width="80" height="30" as="geometry" />
        </mxCell>
        <mxCell id="eVBBevyLOpbmpJ8gu9N7-29" value="" style="endArrow=none;html=1;rounded=0;strokeColor=#FFB366;startArrow=open;startFill=0;endFill=0;entryX=0;entryY=0.5;entryDx=0;entryDy=0;exitX=1;exitY=0.5;exitDx=0;exitDy=0;" edge="1" parent="eVBBevyLOpbmpJ8gu9N7-1" source="eVBBevyLOpbmpJ8gu9N7-25" target="eVBBevyLOpbmpJ8gu9N7-24">
          <mxGeometry width="50" height="50" relative="1" as="geometry">
            <mxPoint x="770" y="820" as="sourcePoint" />
            <mxPoint x="770" y="690" as="targetPoint" />
          </mxGeometry>
        </mxCell>
        <mxCell id="eVBBevyLOpbmpJ8gu9N7-30" value="" style="endArrow=none;html=1;rounded=0;strokeColor=#FFB366;startArrow=open;startFill=0;endFill=0;entryX=0;entryY=0.5;entryDx=0;entryDy=0;exitX=1;exitY=0.5;exitDx=0;exitDy=0;" edge="1" parent="eVBBevyLOpbmpJ8gu9N7-1" source="eVBBevyLOpbmpJ8gu9N7-27" target="eVBBevyLOpbmpJ8gu9N7-25">
          <mxGeometry width="50" height="50" relative="1" as="geometry">
            <mxPoint x="560" y="640" as="sourcePoint" />
            <mxPoint x="580" y="640" as="targetPoint" />
          </mxGeometry>
        </mxCell>
        <mxCell id="eVBBevyLOpbmpJ8gu9N7-31" value="" style="endArrow=none;html=1;rounded=0;strokeColor=#FFB366;startArrow=open;startFill=0;endFill=0;entryX=0;entryY=0.5;entryDx=0;entryDy=0;exitX=1;exitY=0.5;exitDx=0;exitDy=0;" edge="1" parent="eVBBevyLOpbmpJ8gu9N7-1" source="eVBBevyLOpbmpJ8gu9N7-28" target="eVBBevyLOpbmpJ8gu9N7-27">
          <mxGeometry width="50" height="50" relative="1" as="geometry">
            <mxPoint x="680" y="685" as="sourcePoint" />
            <mxPoint x="700" y="685" as="targetPoint" />
          </mxGeometry>
        </mxCell>
        <mxCell id="eVBBevyLOpbmpJ8gu9N7-32" value="媒体双向网络" style="text;html=1;resizable=0;autosize=1;align=center;verticalAlign=middle;points=[];fillColor=none;strokeColor=none;rounded=0;shadow=0;dashed=1;fontColor=#3333ff;" vertex="1" parent="eVBBevyLOpbmpJ8gu9N7-1">
          <mxGeometry x="200" y="710" width="100" height="30" as="geometry" />
        </mxCell>
        <mxCell id="eVBBevyLOpbmpJ8gu9N7-33" value="" style="endArrow=open;html=1;strokeColor=#FFB366;startArrow=open;startFill=0;endFill=0;entryX=0;entryY=0.5;entryDx=0;entryDy=0;exitX=1;exitY=0.5;exitDx=0;exitDy=0;strokeWidth=1;rounded=1;" edge="1" parent="eVBBevyLOpbmpJ8gu9N7-1" source="eVBBevyLOpbmpJ8gu9N7-36" target="eVBBevyLOpbmpJ8gu9N7-8">
          <mxGeometry width="50" height="50" relative="1" as="geometry">
            <mxPoint x="310" y="720" as="sourcePoint" />
            <mxPoint x="579.9999999999998" y="690" as="targetPoint" />
            <Array as="points" />
          </mxGeometry>
        </mxCell>
        <mxCell id="eVBBevyLOpbmpJ8gu9N7-34" value="dmcu" style="rounded=1;whiteSpace=wrap;html=1;" vertex="1" parent="eVBBevyLOpbmpJ8gu9N7-1">
          <mxGeometry x="220" y="917" width="80" height="30" as="geometry" />
        </mxCell>
        <mxCell id="eVBBevyLOpbmpJ8gu9N7-35" value="dmcu" style="rounded=1;whiteSpace=wrap;html=1;" vertex="1" parent="eVBBevyLOpbmpJ8gu9N7-1">
          <mxGeometry x="380" y="917" width="80" height="30" as="geometry" />
        </mxCell>
        <mxCell id="eVBBevyLOpbmpJ8gu9N7-36" value="mc" style="rounded=1;whiteSpace=wrap;html=1;" vertex="1" parent="eVBBevyLOpbmpJ8gu9N7-1">
          <mxGeometry x="270" y="740" width="80" height="30" as="geometry" />
        </mxCell>
        <mxCell id="eVBBevyLOpbmpJ8gu9N7-37" value="" style="endArrow=none;html=1;rounded=0;strokeColor=#FFB366;startArrow=open;startFill=0;endFill=0;entryX=0.5;entryY=1;entryDx=0;entryDy=0;exitX=0.5;exitY=0;exitDx=0;exitDy=0;" edge="1" parent="eVBBevyLOpbmpJ8gu9N7-1" source="eVBBevyLOpbmpJ8gu9N7-63" target="eVBBevyLOpbmpJ8gu9N7-28">
          <mxGeometry width="50" height="50" relative="1" as="geometry">
            <mxPoint x="460.0000000000002" y="690" as="sourcePoint" />
            <mxPoint x="479.9999999999998" y="690" as="targetPoint" />
          </mxGeometry>
        </mxCell>
        <mxCell id="eVBBevyLOpbmpJ8gu9N7-38" value="" style="endArrow=open;startArrow=none;html=1;exitX=0;exitY=0.5;exitDx=0;exitDy=0;entryX=1;entryY=0.5;entryDx=0;entryDy=0;rounded=0;endFill=0;startFill=0;dashed=1;strokeColor=#006633;" edge="1" parent="eVBBevyLOpbmpJ8gu9N7-1" source="eVBBevyLOpbmpJ8gu9N7-26" target="eVBBevyLOpbmpJ8gu9N7-23">
          <mxGeometry width="50" height="50" relative="1" as="geometry">
            <mxPoint x="569.9999999999998" y="885" as="sourcePoint" />
            <mxPoint x="469.9999999999998" y="905" as="targetPoint" />
          </mxGeometry>
        </mxCell>
        <mxCell id="eVBBevyLOpbmpJ8gu9N7-39" value="" style="endArrow=open;startArrow=none;html=1;exitX=0.5;exitY=1;exitDx=0;exitDy=0;entryX=0.5;entryY=0;entryDx=0;entryDy=0;rounded=0;endFill=0;startFill=0;dashed=1;strokeColor=#006633;" edge="1" parent="eVBBevyLOpbmpJ8gu9N7-1" source="eVBBevyLOpbmpJ8gu9N7-23" target="eVBBevyLOpbmpJ8gu9N7-42">
          <mxGeometry width="50" height="50" relative="1" as="geometry">
            <mxPoint x="549.9999999999998" y="910" as="sourcePoint" />
            <mxPoint x="449.9999999999998" y="930" as="targetPoint" />
          </mxGeometry>
        </mxCell>
        <mxCell id="eVBBevyLOpbmpJ8gu9N7-40" value="" style="endArrow=open;startArrow=none;html=1;entryX=0;entryY=1;entryDx=0;entryDy=0;rounded=0;endFill=0;startFill=0;dashed=1;strokeColor=#006633;exitX=1;exitY=0.5;exitDx=0;exitDy=0;" edge="1" parent="eVBBevyLOpbmpJ8gu9N7-1" source="eVBBevyLOpbmpJ8gu9N7-42" target="eVBBevyLOpbmpJ8gu9N7-26">
          <mxGeometry width="50" height="50" relative="1" as="geometry">
            <mxPoint x="550" y="910" as="sourcePoint" />
            <mxPoint x="459.9999999999998" y="930" as="targetPoint" />
            <Array as="points" />
          </mxGeometry>
        </mxCell>
        <mxCell id="eVBBevyLOpbmpJ8gu9N7-41" value="" style="endArrow=open;startArrow=open;html=1;exitX=0;exitY=0.5;exitDx=0;exitDy=0;entryX=1;entryY=0.5;entryDx=0;entryDy=0;rounded=0;endFill=0;startFill=0;dashed=1;strokeColor=#006633;" edge="1" parent="eVBBevyLOpbmpJ8gu9N7-1" source="eVBBevyLOpbmpJ8gu9N7-42" target="eVBBevyLOpbmpJ8gu9N7-22">
          <mxGeometry width="50" height="50" relative="1" as="geometry">
            <mxPoint x="389.9999999999998" y="880" as="sourcePoint" />
            <mxPoint x="289.9999999999998" y="900" as="targetPoint" />
          </mxGeometry>
        </mxCell>
        <mxCell id="eVBBevyLOpbmpJ8gu9N7-42" value="dmcu" style="rounded=1;whiteSpace=wrap;html=1;" vertex="1" parent="eVBBevyLOpbmpJ8gu9N7-1">
          <mxGeometry x="380" y="860" width="80" height="30" as="geometry" />
        </mxCell>
        <mxCell id="eVBBevyLOpbmpJ8gu9N7-43" value="" style="endArrow=open;startArrow=open;html=1;exitX=0;exitY=0.5;exitDx=0;exitDy=0;entryX=1;entryY=0.5;entryDx=0;entryDy=0;rounded=0;endFill=0;startFill=0;dashed=1;strokeColor=#006633;" edge="1" parent="eVBBevyLOpbmpJ8gu9N7-1" source="eVBBevyLOpbmpJ8gu9N7-35" target="eVBBevyLOpbmpJ8gu9N7-34">
          <mxGeometry width="50" height="50" relative="1" as="geometry">
            <mxPoint x="319.9999999999998" y="988" as="sourcePoint" />
            <mxPoint x="219.99999999999977" y="1008" as="targetPoint" />
          </mxGeometry>
        </mxCell>
        <mxCell id="eVBBevyLOpbmpJ8gu9N7-44" value="" style="endArrow=open;startArrow=open;html=1;exitX=0.5;exitY=1;exitDx=0;exitDy=0;entryX=0.5;entryY=0;entryDx=0;entryDy=0;rounded=0;endFill=0;startFill=0;dashed=1;strokeColor=#006633;" edge="1" parent="eVBBevyLOpbmpJ8gu9N7-1" source="eVBBevyLOpbmpJ8gu9N7-22" target="eVBBevyLOpbmpJ8gu9N7-34">
          <mxGeometry width="50" height="50" relative="1" as="geometry">
            <mxPoint x="259.9999999999998" y="1000" as="sourcePoint" />
            <mxPoint x="159.99999999999977" y="1020" as="targetPoint" />
          </mxGeometry>
        </mxCell>
        <mxCell id="eVBBevyLOpbmpJ8gu9N7-45" value="" style="endArrow=open;startArrow=open;html=1;exitX=0.5;exitY=1;exitDx=0;exitDy=0;entryX=0.5;entryY=0;entryDx=0;entryDy=0;rounded=0;endFill=0;startFill=0;dashed=1;strokeColor=#006633;" edge="1" parent="eVBBevyLOpbmpJ8gu9N7-1" source="eVBBevyLOpbmpJ8gu9N7-42" target="eVBBevyLOpbmpJ8gu9N7-35">
          <mxGeometry width="50" height="50" relative="1" as="geometry">
            <mxPoint x="449.9999999999998" y="1018" as="sourcePoint" />
            <mxPoint x="349.9999999999998" y="1038" as="targetPoint" />
          </mxGeometry>
        </mxCell>
        <mxCell id="eVBBevyLOpbmpJ8gu9N7-46" value="" style="endArrow=none;html=1;rounded=0;strokeColor=#FFB366;startArrow=open;startFill=0;endFill=0;entryX=0.5;entryY=1;entryDx=0;entryDy=0;exitX=0.25;exitY=0;exitDx=0;exitDy=0;" edge="1" parent="eVBBevyLOpbmpJ8gu9N7-1" source="eVBBevyLOpbmpJ8gu9N7-42" target="eVBBevyLOpbmpJ8gu9N7-36">
          <mxGeometry width="50" height="50" relative="1" as="geometry">
            <mxPoint x="430" y="910" as="sourcePoint" />
            <mxPoint x="320" y="780" as="targetPoint" />
          </mxGeometry>
        </mxCell>
        <mxCell id="eVBBevyLOpbmpJ8gu9N7-47" value="" style="endArrow=none;html=1;rounded=0;strokeColor=#FFB366;startArrow=open;startFill=0;endFill=0;entryX=0.5;entryY=1;entryDx=0;entryDy=0;exitX=0.25;exitY=0;exitDx=0;exitDy=0;" edge="1" parent="eVBBevyLOpbmpJ8gu9N7-1" source="eVBBevyLOpbmpJ8gu9N7-22" target="eVBBevyLOpbmpJ8gu9N7-36">
          <mxGeometry width="50" height="50" relative="1" as="geometry">
            <mxPoint x="270" y="910" as="sourcePoint" />
            <mxPoint x="320" y="780" as="targetPoint" />
          </mxGeometry>
        </mxCell>
        <mxCell id="eVBBevyLOpbmpJ8gu9N7-48" value="" style="endArrow=open;startArrow=none;html=1;entryX=0;entryY=0.5;entryDx=0;entryDy=0;rounded=0;endFill=0;startFill=0;dashed=1;strokeColor=#006633;exitX=1;exitY=0.5;exitDx=0;exitDy=0;" edge="1" parent="eVBBevyLOpbmpJ8gu9N7-1" source="eVBBevyLOpbmpJ8gu9N7-35" target="eVBBevyLOpbmpJ8gu9N7-9">
          <mxGeometry width="50" height="50" relative="1" as="geometry">
            <mxPoint x="470" y="865" as="sourcePoint" />
            <mxPoint x="569.9999999999998" y="820" as="targetPoint" />
            <Array as="points" />
          </mxGeometry>
        </mxCell>
        <mxCell id="eVBBevyLOpbmpJ8gu9N7-49" value="hls" style="rounded=1;whiteSpace=wrap;html=1;fillColor=#99CCFF;" vertex="1" parent="eVBBevyLOpbmpJ8gu9N7-1">
          <mxGeometry x="896" y="850" width="80" height="30" as="geometry" />
        </mxCell>
        <mxCell id="eVBBevyLOpbmpJ8gu9N7-50" value="dmcu" style="rounded=1;whiteSpace=wrap;html=1;fillColor=#99CCFF;" vertex="1" parent="eVBBevyLOpbmpJ8gu9N7-1">
          <mxGeometry x="856" y="910" width="80" height="30" as="geometry" />
        </mxCell>
        <mxCell id="eVBBevyLOpbmpJ8gu9N7-51" value="hls" style="rounded=1;whiteSpace=wrap;html=1;fillColor=#99CCFF;" vertex="1" parent="eVBBevyLOpbmpJ8gu9N7-1">
          <mxGeometry x="946" y="910" width="80" height="30" as="geometry" />
        </mxCell>
        <mxCell id="eVBBevyLOpbmpJ8gu9N7-52" value="" style="endArrow=open;startArrow=none;html=1;exitX=0.5;exitY=1;exitDx=0;exitDy=0;entryX=0.5;entryY=0;entryDx=0;entryDy=0;rounded=0;endFill=0;startFill=0;dashed=1;strokeColor=#006633;" edge="1" parent="eVBBevyLOpbmpJ8gu9N7-1" source="eVBBevyLOpbmpJ8gu9N7-9" target="eVBBevyLOpbmpJ8gu9N7-13">
          <mxGeometry width="50" height="50" relative="1" as="geometry">
            <mxPoint x="709.9999999999998" y="820" as="sourcePoint" />
            <mxPoint x="709.9999999999998" y="910" as="targetPoint" />
          </mxGeometry>
        </mxCell>
        <mxCell id="eVBBevyLOpbmpJ8gu9N7-53" value="" style="endArrow=open;startArrow=none;html=1;exitX=1;exitY=0.5;exitDx=0;exitDy=0;entryX=0;entryY=0;entryDx=0;entryDy=0;rounded=0;endFill=0;startFill=0;dashed=1;strokeColor=#006633;" edge="1" parent="eVBBevyLOpbmpJ8gu9N7-1" source="eVBBevyLOpbmpJ8gu9N7-9" target="eVBBevyLOpbmpJ8gu9N7-49">
          <mxGeometry width="50" height="50" relative="1" as="geometry">
            <mxPoint x="769.9999999999998" y="800" as="sourcePoint" />
            <mxPoint x="829.9999999999998" y="830" as="targetPoint" />
          </mxGeometry>
        </mxCell>
        <mxCell id="eVBBevyLOpbmpJ8gu9N7-54" value="" style="endArrow=open;startArrow=none;html=1;entryX=0.5;entryY=0;entryDx=0;entryDy=0;rounded=0;endFill=0;startFill=0;dashed=1;strokeColor=#006633;exitX=0.5;exitY=1;exitDx=0;exitDy=0;" edge="1" parent="eVBBevyLOpbmpJ8gu9N7-1" source="eVBBevyLOpbmpJ8gu9N7-13" target="eVBBevyLOpbmpJ8gu9N7-14">
          <mxGeometry width="50" height="50" relative="1" as="geometry">
            <mxPoint x="849.9999999999998" y="880" as="sourcePoint" />
            <mxPoint x="889.9999999999998" y="910" as="targetPoint" />
          </mxGeometry>
        </mxCell>
        <mxCell id="eVBBevyLOpbmpJ8gu9N7-55" value="" style="endArrow=open;startArrow=none;html=1;entryX=0.5;entryY=0;entryDx=0;entryDy=0;rounded=0;endFill=0;startFill=0;dashed=1;strokeColor=#006633;exitX=0.5;exitY=1;exitDx=0;exitDy=0;" edge="1" parent="eVBBevyLOpbmpJ8gu9N7-1" source="eVBBevyLOpbmpJ8gu9N7-49" target="eVBBevyLOpbmpJ8gu9N7-50">
          <mxGeometry width="50" height="50" relative="1" as="geometry">
            <mxPoint x="919.9999999999998" y="860" as="sourcePoint" />
            <mxPoint x="959.9999999999998" y="890" as="targetPoint" />
          </mxGeometry>
        </mxCell>
        <mxCell id="eVBBevyLOpbmpJ8gu9N7-56" value="" style="endArrow=open;startArrow=none;html=1;entryX=0.5;entryY=0;entryDx=0;entryDy=0;rounded=0;endFill=0;startFill=0;dashed=1;strokeColor=#006633;exitX=0.5;exitY=1;exitDx=0;exitDy=0;" edge="1" parent="eVBBevyLOpbmpJ8gu9N7-1" source="eVBBevyLOpbmpJ8gu9N7-49" target="eVBBevyLOpbmpJ8gu9N7-51">
          <mxGeometry width="50" height="50" relative="1" as="geometry">
            <mxPoint x="989.9999999999998" y="870" as="sourcePoint" />
            <mxPoint x="1029.9999999999998" y="900" as="targetPoint" />
          </mxGeometry>
        </mxCell>
        <mxCell id="eVBBevyLOpbmpJ8gu9N7-57" value="" style="endArrow=none;html=1;rounded=0;strokeColor=#FFB366;startArrow=open;startFill=0;endFill=0;entryX=0.5;entryY=1;entryDx=0;entryDy=0;exitX=0.5;exitY=0;exitDx=0;exitDy=0;" edge="1" parent="eVBBevyLOpbmpJ8gu9N7-1" source="eVBBevyLOpbmpJ8gu9N7-49" target="eVBBevyLOpbmpJ8gu9N7-8">
          <mxGeometry width="50" height="50" relative="1" as="geometry">
            <mxPoint x="849.9999999999998" y="850" as="sourcePoint" />
            <mxPoint x="859.9999999999998" y="780" as="targetPoint" />
          </mxGeometry>
        </mxCell>
        <mxCell id="eVBBevyLOpbmpJ8gu9N7-58" value="ep" style="rounded=1;whiteSpace=wrap;html=1;" vertex="1" parent="eVBBevyLOpbmpJ8gu9N7-1">
          <mxGeometry x="220" y="988" width="80" height="30" as="geometry" />
        </mxCell>
        <mxCell id="eVBBevyLOpbmpJ8gu9N7-59" value="" style="endArrow=open;startArrow=open;html=1;exitX=0.5;exitY=1;exitDx=0;exitDy=0;entryX=0.5;entryY=0;entryDx=0;entryDy=0;rounded=0;endFill=0;startFill=0;dashed=1;strokeColor=#006633;" edge="1" parent="eVBBevyLOpbmpJ8gu9N7-1" source="eVBBevyLOpbmpJ8gu9N7-34" target="eVBBevyLOpbmpJ8gu9N7-58">
          <mxGeometry width="50" height="50" relative="1" as="geometry">
            <mxPoint x="380" y="1002.62" as="sourcePoint" />
            <mxPoint x="300" y="1002.62" as="targetPoint" />
          </mxGeometry>
        </mxCell>
        <mxCell id="eVBBevyLOpbmpJ8gu9N7-60" value="" style="endArrow=none;html=1;rounded=0;strokeColor=#FFB366;startArrow=open;startFill=0;endFill=0;entryX=0.5;entryY=1;entryDx=0;entryDy=0;exitX=0.5;exitY=0;exitDx=0;exitDy=0;" edge="1" parent="eVBBevyLOpbmpJ8gu9N7-1" source="eVBBevyLOpbmpJ8gu9N7-23" target="eVBBevyLOpbmpJ8gu9N7-63">
          <mxGeometry width="50" height="50" relative="1" as="geometry">
            <mxPoint x="440" y="700" as="sourcePoint" />
            <mxPoint x="469.9999999999998" y="700" as="targetPoint" />
          </mxGeometry>
        </mxCell>
        <mxCell id="eVBBevyLOpbmpJ8gu9N7-61" value="" style="endArrow=none;html=1;rounded=0;strokeColor=#FFB366;startArrow=open;startFill=0;endFill=0;entryX=0.5;entryY=1;entryDx=0;entryDy=0;exitX=0.5;exitY=0;exitDx=0;exitDy=0;" edge="1" parent="eVBBevyLOpbmpJ8gu9N7-1" source="eVBBevyLOpbmpJ8gu9N7-26" target="eVBBevyLOpbmpJ8gu9N7-25">
          <mxGeometry width="50" height="50" relative="1" as="geometry">
            <mxPoint x="709.9999999999998" y="690" as="sourcePoint" />
            <mxPoint x="729.9999999999998" y="690" as="targetPoint" />
          </mxGeometry>
        </mxCell>
        <mxCell id="eVBBevyLOpbmpJ8gu9N7-62" value="" style="endArrow=none;html=1;rounded=0;strokeColor=#FFB366;startArrow=open;startFill=0;endFill=0;entryX=0;entryY=0.5;entryDx=0;entryDy=0;exitX=0.5;exitY=0;exitDx=0;exitDy=0;" edge="1" parent="eVBBevyLOpbmpJ8gu9N7-1" source="eVBBevyLOpbmpJ8gu9N7-36" target="eVBBevyLOpbmpJ8gu9N7-28">
          <mxGeometry width="50" height="50" relative="1" as="geometry">
            <mxPoint x="609.9999999999998" y="690" as="sourcePoint" />
            <mxPoint x="629.9999999999998" y="690" as="targetPoint" />
            <Array as="points">
              <mxPoint x="310" y="665" />
            </Array>
          </mxGeometry>
        </mxCell>
        <mxCell id="eVBBevyLOpbmpJ8gu9N7-63" value="shuttle" style="rounded=1;whiteSpace=wrap;html=1;" vertex="1" parent="eVBBevyLOpbmpJ8gu9N7-1">
          <mxGeometry x="380" y="766" width="80" height="30" as="geometry" />
        </mxCell>
        <mxCell id="eVBBevyLOpbmpJ8gu9N7-64" value="" style="endArrow=none;html=1;rounded=0;strokeColor=#FFB366;startArrow=open;startFill=0;endFill=0;entryX=0.5;entryY=1;entryDx=0;entryDy=0;exitX=0;exitY=0.5;exitDx=0;exitDy=0;" edge="1" parent="eVBBevyLOpbmpJ8gu9N7-1" source="eVBBevyLOpbmpJ8gu9N7-8" target="eVBBevyLOpbmpJ8gu9N7-27">
          <mxGeometry width="50" height="50" relative="1" as="geometry">
            <mxPoint x="609.9999999999998" y="790" as="sourcePoint" />
            <mxPoint x="629.9999999999998" y="690" as="targetPoint" />
          </mxGeometry>
        </mxCell>
        <mxCell id="eVBBevyLOpbmpJ8gu9N7-65" value="ep" style="rounded=1;whiteSpace=wrap;html=1;" vertex="1" parent="eVBBevyLOpbmpJ8gu9N7-1">
          <mxGeometry x="380" y="988" width="80" height="30" as="geometry" />
        </mxCell>
        <mxCell id="eVBBevyLOpbmpJ8gu9N7-66" value="" style="endArrow=open;startArrow=open;html=1;exitX=0.5;exitY=1;exitDx=0;exitDy=0;entryX=0.5;entryY=0;entryDx=0;entryDy=0;rounded=0;endFill=0;startFill=0;dashed=1;strokeColor=#006633;" edge="1" parent="eVBBevyLOpbmpJ8gu9N7-1" source="eVBBevyLOpbmpJ8gu9N7-35" target="eVBBevyLOpbmpJ8gu9N7-65">
          <mxGeometry width="50" height="50" relative="1" as="geometry">
            <mxPoint x="360" y="940" as="sourcePoint" />
            <mxPoint x="360" y="998" as="targetPoint" />
          </mxGeometry>
        </mxCell>
        <mxCell id="eVBBevyLOpbmpJ8gu9N7-67" value="APP" style="rounded=1;whiteSpace=wrap;html=1;fillColor=#99FFFF;" vertex="1" parent="eVBBevyLOpbmpJ8gu9N7-1">
          <mxGeometry x="660" y="988" width="80" height="30" as="geometry" />
        </mxCell>
        <mxCell id="eVBBevyLOpbmpJ8gu9N7-68" value="H5" style="rounded=1;whiteSpace=wrap;html=1;fillColor=#99FFFF;" vertex="1" parent="eVBBevyLOpbmpJ8gu9N7-1">
          <mxGeometry x="750" y="988" width="80" height="30" as="geometry" />
        </mxCell>
        <mxCell id="eVBBevyLOpbmpJ8gu9N7-69" value="" style="endArrow=open;startArrow=none;html=1;rounded=0;endFill=0;startFill=0;dashed=1;strokeColor=#006633;exitX=0.5;exitY=1;exitDx=0;exitDy=0;" edge="1" parent="eVBBevyLOpbmpJ8gu9N7-1" source="eVBBevyLOpbmpJ8gu9N7-14">
          <mxGeometry width="50" height="50" relative="1" as="geometry">
            <mxPoint x="699.72" y="950.0000000000002" as="sourcePoint" />
            <mxPoint x="700" y="990" as="targetPoint" />
          </mxGeometry>
        </mxCell>
        <mxCell id="eVBBevyLOpbmpJ8gu9N7-70" value="" style="endArrow=open;startArrow=none;html=1;rounded=0;endFill=0;startFill=0;dashed=1;strokeColor=#006633;exitX=0.5;exitY=1;exitDx=0;exitDy=0;entryX=0.5;entryY=0;entryDx=0;entryDy=0;" edge="1" parent="eVBBevyLOpbmpJ8gu9N7-1" source="eVBBevyLOpbmpJ8gu9N7-15" target="eVBBevyLOpbmpJ8gu9N7-68">
          <mxGeometry width="50" height="50" relative="1" as="geometry">
            <mxPoint x="780" y="950.0000000000002" as="sourcePoint" />
            <mxPoint x="780" y="1000.0000000000002" as="targetPoint" />
          </mxGeometry>
        </mxCell>
        <mxCell id="eVBBevyLOpbmpJ8gu9N7-73" value="site-86" style="text;html=1;resizable=0;autosize=1;align=center;verticalAlign=middle;points=[];fillColor=none;strokeColor=none;rounded=0;dashed=1;" vertex="1" parent="eVBBevyLOpbmpJ8gu9N7-1">
          <mxGeometry x="715" y="947" width="60" height="30" as="geometry" />
        </mxCell>
        <mxCell id="eVBBevyLOpbmpJ8gu9N7-74" value="site-87" style="text;html=1;resizable=0;autosize=1;align=center;verticalAlign=middle;points=[];fillColor=none;strokeColor=none;rounded=0;dashed=1;" vertex="1" parent="eVBBevyLOpbmpJ8gu9N7-1">
          <mxGeometry x="906" y="947" width="60" height="30" as="geometry" />
        </mxCell>
      </root>
    </mxGraphModel>
  </diagram>
</mxfile>
